<?xml version="1.0" standalone="no"?>
<!DOCTYPE svg PUBLIC "-//W3C//DTD SVG 1.1//EN" "http://www.w3.org/Graphics/SVG/1.1/DTD/svg11.dtd" >
<svg xmlns="http://www.w3.org/2000/svg" xmlns:xlink="http://www.w3.org/1999/xlink" version="1.1">
<metadata>
Created by FontForge 20160113 at Mon Mar 28 05:38:56 2016
 By root
HTTP://www.gjjc.com  EMAIL:www@gjjc.com  OICQ:24493288
</metadata>
<defs>
<font id="JZunYuan" horiz-adv-x="256" >
  <font-face 
    font-family=""
    font-weight="400"
    font-stretch="normal"
    units-per-em="256"
    panose-1="3 0 5 9 0 0 0 0 0 0"
    ascent="204"
    descent="-52"
    bbox="3 -32 255 215"
    underline-thickness="12"
    underline-position="-57"
    unicode-range="U+4E0B-FF0C"
  />
<missing-glyph 
 />
    <glyph glyph-name=".notdef" 
 />
    <glyph glyph-name="uni4E0B" unicode="&#x4e0b;" 
d="M16 196h223q9 -1 9 -11q-1 -10 -10 -10h-107v-34q68 -44 89 -64q8 -9 3 -17q-6 -7 -15 0q-56 44 -73 54q-5 4 -4 4v-138q-12 -16 -22 1v194h-93q-10 0 -10 10t10 11z" />
    <glyph glyph-name="uni4F53" unicode="&#x4f53;" 
d="M165 202v-32h71q9 -1 10 -10q0 -9 -9 -9h-70q25 -62 80 -111q9 -10 2 -20q-8 -7 -18 4q-45 46 -66 90v-76h39q9 -1 10 -10q-1 -9 -10 -9h-39v-39q-1 -10 -10 -12q-10 1 -10 11v40h-36q-10 0 -11 9q0 9 10 10h37v77q-26 -55 -66 -96q-9 -9 -17 -3q-7 9 1 18q54 53 78 117
h-61q-10 0 -11 9q0 9 10 10h66v32q0 11 10 12q9 -1 10 -12zM55 153v-172q-1 -9 -10 -10q-9 1 -9 11v133q-9 -16 -12 -20q-8 -9 -17 -3q-5 7 0 17q27 37 43 95q3 11 14 8q9 -4 7 -15q-6 -19 -14 -38z" />
    <glyph glyph-name="uni5165" unicode="&#x5165;" 
d="M57 199h63q20 1 25 -22q27 -118 105 -179q8 -8 2 -16q-7 -7 -16 0q-80 63 -105 173q-22 -105 -101 -172q-8 -6 -15 0q-8 9 -1 15q74 55 102 177q0 4 -6 5h-53q-12 0 -13 9q1 9 13 10z" />
    <glyph glyph-name="uni5B57" unicode="&#x5b57;" 
d="M216 164h-175q-6 -1 -6 -8v-23q-1 -9 -11 -9t-10 9v31q-1 20 21 20h79q-1 1 -3 5q-3 4 -4 8q-5 9 4 15q10 4 16 -5q7 -13 12 -23h85q20 -1 20 -22q0 -14 -4 -27q-4 -10 -13 -8q-10 3 -7 13q8 25 -4 24zM57 146h136q12 -1 14 -13q0 -13 -11 -18q-9 -3 -16 -6
q-58 -20 -47 -20q-1 -2 4 -7q6 -5 14 -15h91q8 -1 9 -11q-1 -10 -9 -10h-81q9 -40 -13 -65q-22 -22 -81 -5q-10 4 -8 13q3 10 13 7q46 -13 58 0q18 14 9 50h-122q-10 0 -10 10q1 10 11 11h106l-9 9q-9 8 -10 19q-2 8 54 25q16 6 14 6h-117q-10 0 -10 10q1 9 11 10z" />
    <glyph glyph-name="uni6210" unicode="&#x6210;" 
d="M153 170h53q-22 11 -29 15q-10 4 -7 12q4 8 14 5q16 -7 29 -15q11 -13 -4 -17h25q8 -1 9 -9q1 -10 -7 -10h-80q7 -51 25 -88q10 18 19 60q2 8 12 7q10 -3 9 -12q-8 -39 -29 -78q20 -37 35 -40q3 3 4 35q0 9 10 9q9 -2 10 -11q-3 -59 -20 -59q-22 2 -53 48
q-27 -31 -63 -45q-11 -3 -16 6q-2 9 9 13q36 13 59 46q-22 46 -33 109h-72q-13 0 -12 -11v-14h48q22 2 21 -23v-70q-5 -40 -61 -21q-8 3 -5 12q5 10 13 7q33 -17 33 8v61q0 7 -6 7h-43v-22q-2 -60 -17 -96q-6 -10 -15 -7q-8 5 -4 15q15 36 16 83v72q-2 19 24 18h78
q-1 0 -2 27q-1 8 9 10q11 0 12 -8v-15q1 -10 2 -14z" />
    <glyph glyph-name="uni6280" unicode="&#x6280;" 
d="M172 197v-15h65q8 -1 9 -10q-1 -10 -9 -10h-65v-36h48q20 -2 13 -27q-18 -45 -50 -72q35 -25 64 -34q10 -4 7 -13q-4 -10 -15 -7q-38 15 -74 40q-38 -21 -78 -35q-11 -3 -15 6q-2 10 9 13q46 15 67 31q-17 13 -43 53q-6 9 1 15q8 5 15 -3q30 -42 45 -51q28 22 44 55
q2 7 -4 9h-101q-8 0 -9 10q1 9 10 10h46v36h-58q-8 0 -9 10q1 9 9 10h58v16q0 8 10 8q9 -1 10 -9zM63 195v-38h20q8 -1 9 -9q-1 -9 -9 -9h-20v-51q6 2 18 10q6 3 11 -4q3 -7 -2 -11q-9 -8 -27 -15v-75q-3 -24 -40 -16q-10 4 -9 12q3 9 13 6q18 -5 17 4v62q-13 -7 -25 -9
q-10 -3 -13 5q-2 9 7 13q11 2 31 11v58h-24q-8 0 -9 9q1 8 9 9h24v38q0 7 9 8q9 -1 10 -8z" />
    <glyph glyph-name="uni628A" unicode="&#x628a;" 
d="M113 198h104q23 1 21 -19v-79q1 -18 -19 -16h-103v-61q-3 -27 25 -25h65q29 -5 26 35q0 9 10 9q10 -1 11 -10q0 -34 -8 -43q-8 -10 -35 -10h-71q-46 -3 -42 39v162q-2 19 16 18zM211 180h-36v-78h37q6 -1 6 7v63q0 7 -7 8zM116 173v-71h41v78h-34q-8 0 -7 -7zM62 197v-37
h15q8 -1 9 -11q-1 -10 -8 -10h-16v-50l6 3q4 3 7 5q7 3 11 -5q3 -8 -3 -13q-8 -6 -21 -11v-61q3 -35 -40 -25q-9 3 -8 13q3 7 12 6q18 -4 17 8v52q-10 -4 -23 -8h-2q-9 -3 -12 6q-1 9 7 12q9 2 30 10v58h-21q-9 0 -9 10t9 11h21v37q0 9 9 9t10 -9z" />
    <glyph glyph-name="uni6587" unicode="&#x6587;" 
d="M246 159h-36q-13 -69 -61 -118q39 -34 99 -50q12 -18 -9 -22q-57 20 -107 57q-52 -36 -111 -53q-10 -1 -13 9q-2 10 7 13q63 17 100 47q-46 52 -58 117h-39q-10 0 -10 10t10 11h103q-2 2 -5 8q-4 6 -5 9q-6 10 3 16q10 3 17 -6q9 -20 14 -27h101q8 -1 9 -11
q-1 -10 -9 -10zM188 159h-108q8 -58 52 -104q46 43 56 104z" />
    <glyph glyph-name="uni6CD5" unicode="&#x6cd5;" 
d="M163 200v-28h68q9 -1 10 -10q-1 -10 -10 -10h-68v-47h76q8 -1 9 -10q-1 -9 -9 -9h-81q-26 -48 -52 -83q-2 -2 -1 -3h3q24 0 52 3t53 7q-5 10 -21 36q-5 8 1 13q8 6 14 -1q21 -31 43 -73q4 -9 -4 -15q-9 -5 -13 3q-5 9 -10 19q-46 -7 -132 -12q-12 0 -15 6t5 14
q28 39 54 86h-54q-9 0 -9 9q1 9 10 10h60v47h-56q-10 0 -10 10q0 9 10 10h56v28q0 8 10 9q10 -1 11 -9zM35 199q20 -14 32 -24q6 -7 0 -16q-6 -7 -13 0q-10 9 -28 21l-2 2q-9 6 -4 14q5 7 15 3zM54 68q3 9 12 6q9 -4 7 -13q-15 -46 -45 -84q-8 -8 -15 -2q-8 8 -1 17
q27 34 42 76zM27 133q14 -8 34 -23q6 -7 1 -16q-7 -7 -14 0q-15 12 -33 23q-8 5 -3 13q6 7 15 3z" />
    <glyph glyph-name="uni755C" unicode="&#x755c;" 
d="M52 69h157q20 1 20 -17v-57q0 -18 -19 -19h-158q-21 0 -21 17v60q-1 16 21 16zM50 44v-13h71v21h-63q-9 0 -8 -8zM58 -7h63v20h-71v-13q-1 -7 8 -7zM203 52h-63v-21h70v13q0 8 -7 8zM210 0v13h-70v-20h63q7 0 7 7zM235 170h-97q-1 -4 -6 -8q-21 -10 -52 -20q29 0 46 1
q18 1 34 3q7 3 23 13q8 4 14 -4q3 -9 -5 -14q-41 -23 -120 -43q68 1 123 5l-10 10q-7 6 -1 14q8 6 15 0q13 -15 33 -38q5 -9 -1 -15q-8 -5 -14 3q-2 1 -3 3t-5 6q-39 -3 -88 -5q-46 -1 -73 1q-12 1 -15 8q-2 8 9 12q40 12 71 25q-34 -2 -53 -2q-13 0 -16 9q-2 9 10 13
q11 4 41 17q9 4 13 6h-85q-10 0 -11 8q0 9 10 10h96q-2 1 -4 5l-3 6q-5 9 3 14q9 4 15 -4q2 -4 5 -11t6 -10h95q9 -1 9 -9q0 -9 -9 -9z" />
    <glyph glyph-name="uni79D1" unicode="&#x79d1;" 
d="M76 181v-41h33q16 -11 0 -21h-33v-5q22 -22 40 -47q4 -9 -3 -15q-9 -6 -13 3q-9 18 -24 33v-106q-1 -8 -10 -9q-9 1 -9 9v104q-13 -27 -34 -47q-9 -8 -15 -3q-5 8 1 16q28 23 45 67h-36q-15 11 1 21h38v38q-14 -2 -33 -2q-8 0 -9 9t7 10q49 3 80 11q8 1 11 -7
q2 -9 -6 -12q-7 -3 -22 -5q-6 -1 -9 -1zM219 192v-133q5 0 11 1q10 1 13 2q7 0 9 -10q0 -9 -7 -10q-21 -3 -26 -4v-59q-1 -8 -10 -9q-10 1 -10 8v57q-25 -4 -59 -10q-20 -3 -30 -4q-9 -1 -12 8q-1 10 8 12q22 3 47 7q29 5 46 8v136q0 8 10 9q9 -1 10 -9zM149 191
q23 -20 40 -45q4 -9 -2 -15q-8 -6 -13 2q-19 26 -38 43q-8 6 -2 14q7 6 15 1zM137 132q21 -16 37 -40q5 -9 -1 -15q-8 -7 -14 1q-16 23 -35 39q-7 5 -1 13q6 7 14 2z" />
    <glyph glyph-name="uni89C6" unicode="&#x89c6;" 
d="M139 201h74q24 1 23 -23v-106q-1 -10 -10 -11q-10 1 -10 11v101q0 8 -8 8h-63q-9 -1 -9 -8v-99q-1 -11 -10 -12q-10 1 -10 12v104q-2 24 23 23zM163 162q0 9 10 10q10 0 11 -9q4 -155 -76 -192q-11 -5 -16 1q-5 8 5 15q40 27 53 64q13 32 13 111zM198 71v-67q0 -6 9 -7
h16q9 -2 9 25q0 8 9 9q9 -1 10 -8q2 -51 -21 -46h-29q-23 -1 -22 22v72q0 9 9 10q9 -1 10 -10zM68 171h14q25 0 13 -30q-12 -24 -28 -42v-121q-1 -8 -10 -8q-9 1 -9 9v101q-17 -15 -22 -18l-4 -4q-10 -7 -17 -1q-3 8 5 16q49 39 66 71q2 6 -7 7h-51q-9 0 -9 10q1 9 10 10h33
q-5 9 -14 23q-5 8 2 13q8 4 14 -3q1 -2 9 -14q3 -5 5 -7q3 -8 0 -12zM89 98l4 -6q11 -11 15 -17q5 -10 -2 -16q-8 -5 -14 4q-5 8 -17 23q-7 7 -1 13q7 6 15 -1z" />
    <glyph glyph-name="uni8F6C" unicode="&#x8f6c;" 
d="M185 200l-6 -25h48q8 -1 8 -10q-1 -9 -9 -9h-51l-6 -28h70q9 -1 9 -10t-9 -9h-74l-5 -23q-3 -10 6 -8h50q25 -2 14 -25q-11 -24 -36 -47q4 -3 15 -7q6 -3 15 -8q10 -7 6 -16q-6 -8 -16 -2q-36 21 -89 41q-11 4 -8 14q4 8 16 5q16 -7 41 -17q22 18 34 37q1 2 0 3
q-1 2 -3 2h-53q-14 -1 -16 3q-3 3 1 17l7 31h-37q-8 0 -9 9q0 9 8 10h42l6 28h-31q-10 0 -10 9t10 10h35l7 29q2 10 12 9q9 -3 8 -13zM65 201l-6 -23h36q11 -1 12 -10q-1 -9 -12 -9h-41l-14 -55q-2 -5 4 -4h17v32q0 9 9 10q9 -1 10 -10v-32h18q9 -1 11 -9q0 -10 -9 -10h-20
v-31q7 1 16 5l9 3q8 2 12 -6q2 -8 -6 -11q-14 -7 -31 -11v-53q-1 -9 -10 -9t-9 9v47q-3 -1 -10 -3q-23 -5 -31 -6q-11 -1 -13 7q-1 10 9 13q2 0 8 1q28 5 37 9v36h-30q-19 -2 -12 20l16 58h-17q-9 0 -9 9q1 9 10 10h21l7 28q2 9 11 7q8 -3 7 -12z" />
    <glyph glyph-name="uni8F7D" unicode="&#x8f7d;" 
d="M96 77v-16h35q9 -1 9 -10q-1 -9 -10 -9h-34v-19q3 0 9 1q15 2 27 6q11 1 14 -8q0 -9 -11 -12q-25 -6 -39 -7v-25q-1 -9 -10 -9t-9 9v23q-32 -1 -58 -3q-11 0 -13 7q0 10 11 11q43 2 60 5v21h-36q-13 -1 -15 4q-3 5 4 18q7 12 11 23h-20q-8 0 -9 9q1 9 10 10h27q2 4 5 14
q1 3 6 6h-45q-8 0 -8 9q1 8 9 9h57v21h-47q-10 0 -10 9q0 8 10 9h47v20q0 9 9 9t10 -9v-20h48q9 -1 10 -9q-1 -9 -10 -9h-48v-21h68q-1 8 -2 25q-1 22 -1 32q0 11 10 12q9 -1 10 -12q0 -17 2 -56h59q7 -1 8 -10q-1 -9 -9 -9h-57q2 -34 10 -65q8 15 16 41q4 11 13 9
q8 -3 6 -14q-9 -31 -25 -59q9 -29 24 -39q4 -1 6 19q1 11 10 11q9 -2 9 -13q-4 -43 -17 -46q-23 1 -46 49q-12 -16 -40 -36q-10 -5 -16 1q-5 7 4 14q32 23 42 40q-12 47 -15 88h-94q10 -3 4 -20h64q9 -1 10 -10q-1 -9 -10 -9h-46q7 -3 7 -10zM208 197q14 -14 20 -23
q6 -10 0 -17q-6 -6 -13 3q-3 3 -6 7q-9 11 -14 16q-7 7 -1 15q6 6 14 -1zM84 87h-20q-1 0 -13 -26h26v16q0 7 7 10z" />
    <glyph glyph-name="uni8F93" unicode="&#x8f93;" 
d="M51 203l-4 -21h27q12 -1 12 -10q-1 -9 -13 -9h-29l-14 -60h17v42q0 9 9 9t10 -9v-42h15q8 -1 9 -10q-1 -9 -9 -9h-15v-31q14 5 16 6q9 2 12 -6q2 -8 -7 -12q-2 -1 -21 -8v-55q-1 -8 -10 -9q-9 0 -9 8v49q-8 -3 -27 -9q-10 -3 -13 4q-2 10 7 14q12 2 33 10v39h-26
q-17 -1 -11 16l16 63h-13q-9 0 -10 9q0 9 9 10h17l5 25q1 7 10 6q8 -2 7 -10zM163 215q6 0 22 -16q33 -31 62 -39q9 -4 6 -15q-4 -9 -13 -4q-40 17 -69 44q-6 7 -7 7q-2 0 -9 -8q-27 -27 -60 -44q-12 -6 -18 2q-4 9 7 16q31 15 60 44q13 13 19 13zM196 143h-64q-9 0 -9 9
q0 8 9 9h64q9 -1 9 -9q0 -9 -9 -9zM114 128h38q16 -1 16 -16v-117q3 -29 -33 -19q-9 3 -7 11t11 6q13 -5 12 4v34h-38v-48q-1 -10 -9 -11q-8 1 -8 11v127q-2 19 18 18zM238 125v-129q2 -35 -38 -24q-11 3 -10 12q3 9 13 6q20 -7 18 9v126q0 8 8 9q8 -1 9 -9zM203 111v-109
q-1 -8 -9 -8t-8 8v109q0 9 8 10q8 -1 9 -10zM151 87v17q0 7 -6 8h-26q-6 0 -6 -7v-18h38zM151 47v24h-38v-24h38z" />
    <glyph glyph-name="uni9891" unicode="&#x9891;" 
d="M84 206v-23h30q7 -1 8 -10q-1 -10 -8 -10h-30v-28h33q9 -1 9 -10q0 -10 -9 -10h-33v-60q-1 -11 -10 -12q-9 1 -9 12v60h-46q-10 0 -10 10q0 9 10 10h9v51q0 8 9 9q9 -1 10 -9v-51h18v71q0 8 9 9q9 -1 10 -9zM243 185h-46l-10 -27h36q15 0 15 -14v-95q-1 -11 -10 -12
q-10 1 -10 12v82q-1 7 -8 8h-49q-8 -1 -8 -8v-86q-1 -10 -10 -10t-9 10v98q-1 15 15 15h18l8 27h-41q-10 0 -10 10q0 9 10 10h109q9 -1 9 -10q0 -10 -9 -10zM177 119q0 9 9 10q8 -1 9 -10q5 -107 -71 -143q-11 -5 -16 3q-4 9 7 15q38 22 49 47q13 24 13 78zM35 98q3 8 12 6
q7 -3 6 -12q-9 -32 -30 -56q-7 -7 -14 -2q-5 6 0 14q14 18 26 50zM102 93q1 9 10 8q8 -1 8 -11q-8 -84 -87 -112q-10 -1 -12 6q-1 9 8 12q63 22 73 97zM201 33q27 -20 47 -41q5 -8 0 -14q-7 -7 -14 -1l-10 10q-23 22 -33 31q-7 5 -3 12q5 7 13 3z" />
    <glyph glyph-name="uni9A8C" unicode="&#x9a8c;" 
d="M158 206q10 13 23 0q25 -34 67 -55q8 -6 5 -15q-4 -8 -13 -4q-27 11 -58 43q-11 12 -13 12q-4 0 -16 -14q-26 -31 -50 -46q-10 -6 -15 2q-5 9 5 16q33 20 65 61zM22 197h48q20 3 17 -19l-5 -82h7q9 0 9 -16q-3 -64 -8 -80q-6 -39 -57 -22q-10 4 -9 13q3 9 13 7
q34 -13 35 7q4 21 6 62q2 12 -8 11h-35q-15 -1 -14 13l5 72q1 8 10 8q8 -2 8 -10l-3 -56q-2 -8 6 -8h15l5 72q0 9 -7 9h-38q-9 0 -9 9t9 10zM131 138h83q7 -1 8 -10q-1 -9 -8 -9h-83q-9 0 -9 9t9 10zM126 96q14 -28 23 -72q1 -11 -7 -13q-9 -1 -11 9q-10 41 -22 69
q-4 9 4 13q8 2 13 -6zM62 55q9 2 12 -7q1 -9 -8 -12q-11 -4 -35 -9q-7 -2 -9 -2q-10 -1 -13 7q-2 10 8 12q19 2 45 11zM171 99q4 -15 7 -36q4 -21 5 -39q-1 -11 -9 -12q-9 0 -10 10q-2 43 -11 72q-2 9 6 12q8 1 12 -7zM232 97q-6 -39 -20 -84q-5 -11 -14 -9q-8 3 -4 14
q16 53 20 82q1 10 10 10q8 -3 8 -13zM110 -3h129q7 0 8 -9q-1 -8 -8 -9h-129q-9 1 -9 9q0 9 9 9z" />
    <glyph glyph-name="uni9B3C" unicode="&#x9b3c;" 
d="M131 188h77q20 1 19 -19v-78q0 -19 -18 -18h-67v-61q-3 -16 24 -15h46q23 -2 21 20q0 8 10 8q9 -1 9 -10q-1 -39 -35 -37h-56q-39 0 -38 28v67h-7q-24 -55 -93 -92q-9 -5 -13 2q-5 10 3 15q57 28 82 75h-50q-18 -1 -17 19v79q-2 17 22 17h55q3 4 11 15q3 3 5 6q6 8 14 4
q8 -6 3 -14q-5 -6 -7 -11zM151 30q15 23 23 37q4 7 12 4q6 -5 3 -12q-11 -20 -17 -27q-1 -2 -1 -3t2 0q3 0 14 1q16 1 19 2q-2 3 -7 11q-4 7 2 12q8 4 13 -3q1 -4 3 -7q7 -13 12 -23q2 -9 -6 -12q-8 -2 -11 7q-4 -2 -21 -3q-16 -2 -28 -2q-11 0 -14 4q-4 5 2 14zM118 170
h-60q-12 0 -11 -9v-21h68q3 18 3 30zM208 140v21q0 9 -11 9h-60q-1 -9 -1 -17q-1 -8 -2 -13h74zM112 121h-65v-21q-1 -10 12 -9h44q7 21 9 30zM208 100v21h-77q-2 -11 -7 -30h74q11 -1 10 9z" />
    <glyph glyph-name="uni9ED1" unicode="&#x9ed1;" 
d="M48 202h163q20 0 20 -17v-48q0 -23 -19 -21h-73v-20h87q8 -1 9 -9q-1 -9 -9 -9h-87v-19h100q8 -1 9 -9q-1 -9 -9 -9h-218q-8 0 -8 9q1 8 9 9h99v19h-85q-8 0 -9 9q1 8 9 9h85v20h-75q-19 -1 -18 21v44q-2 22 20 21zM121 184h-62q-14 1 -12 -14v-25q-1 -12 13 -11h61v50z
M84 177q11 -16 16 -24q4 -9 -2 -14q-9 -4 -14 4q-2 2 -5 6q-6 10 -11 17q-6 8 1 13q8 5 15 -2zM60 16q-15 -24 -35 -42q-8 -6 -15 1q-6 8 1 14q20 17 31 37q5 9 14 5q9 -6 4 -15zM110 26l11 -44q1 -9 -8 -12q-10 -1 -12 8q-5 21 -11 42q-2 8 7 12q9 2 13 -6zM139 184v-50h60
q13 -1 13 11v25q1 15 -12 14h-61zM177 176q5 7 13 3q6 -6 2 -14q-2 -2 -3 -4q-7 -11 -14 -19q-7 -9 -15 -4q-7 6 0 14l1 1q12 16 16 23zM169 27q7 -19 13 -40q2 -10 -7 -13q-10 -2 -12 8q-6 18 -13 38q-4 9 5 13q10 2 14 -6zM222 30q24 -30 30 -43q3 -10 -5 -15q-8 -3 -13 6
q-12 22 -27 39q-7 7 0 15q7 5 15 -2z" />
    <glyph glyph-name="uniFF0C" unicode="&#xff0c;" 
d="M67 -1q-1 2 -5 2q-2 0 -3 1q-11 3 -11 14q1 13 16 15q15 -1 16 -23q-1 -26 -26 -36q-5 0 -6 3q0 3 4 6q2 1 3 1q11 10 12 17z" />
  </font>
</defs>
</svg>
